# xmcd
#
# Track frame offsets:
#	150
#	13185
#	26834
#	44718
#	63497
#	81179
#	96577
#	111210
#	123286
#	138468
#	151658
#
# Disc length: 2301 seconds
#
# Revision: 0
# Processed by: cddbd v1.5.2PL0 Copyright (c) Steve Scherf et al.
# Submitted via: dBpowerAMP V4.0
#
DISCID=9708fb0b
DTITLE=Kurt Crasper - Wolftickets
DYEAR=2007
DGENRE=Blues Rock
TTITLE0=Border Runnin' Cowboy
TTITLE1=Tough Girl
TTITLE2=Stair Step Love
TTITLE3='Til That Day
TTITLE4=Ramp Tramp
TTITLE5=Golden Years
TTITLE6=Free Angel
TTITLE7=Hot Rod
TTITLE8=Howlin' At The Moon
TTITLE9=No Survivors
TTITLE10=Scandalous Child
EXTD=
EXTT0=
EXTT1=
EXTT2=
EXTT3=
EXTT4=
EXTT5=
EXTT6=
EXTT7=
EXTT8=
EXTT9=
EXTT10=
PLAYORDER=
